<svg width="507" height="507" viewBox="0 0 507 507" fill="none" xmlns="http://www.w3.org/2000/svg">
<path d="M233.491 231.36C237.194 231.261 241.09 231.273 244.802 231.32C270.332 231.645 296.037 230.915 321.555 231.354C321.555 231.838 321.547 232.322 321.532 232.805C321.085 248.881 314.145 264.09 302.295 274.963C292.882 283.648 280.907 289.043 268.167 290.338C265.24 290.623 262.105 290.703 259.157 290.67C250.395 290.575 241.572 290.79 232.815 290.508C233.097 293.085 233.055 296.703 233.033 299.338C232.941 310.483 232.339 317.743 227.892 328.068C225.236 333.84 221.738 339.185 217.512 343.93C205.631 357.19 191.134 362.475 173.797 363.405C173.518 348.14 173.75 332.285 173.739 316.973L173.721 299.183C173.718 291.995 173.561 284.183 175.216 277.168C177.624 267.105 182.592 257.838 189.636 250.26C201.709 237.269 216.161 232.012 233.491 231.36Z" fill="#CCFF33"/>
<path d="M231.212 158.108C238.198 157.875 245.869 158.012 252.898 158.013L289.653 158.015L379.998 158.068C379.488 191.22 355.28 215.36 322.415 217.234C309.413 217.412 296.143 217.288 283.113 217.287L216.793 217.301L188.272 217.271C184.517 217.267 176.691 217.051 173.252 217.53C173.164 202.599 178.726 188.188 188.824 177.189C199.902 164.943 214.936 158.903 231.212 158.108Z" fill="#CCFF33"/>
</svg>
